<?xml version="1.0" encoding="UTF-8"?>
<svg width="201" height="80" viewBox="0 0 201 80" xmlns="http://www.w3.org/2000/svg">
    <path id="Vector" fill="#FFFFFF" d="M0.163086 50.0342L19.4492 80.0391H0.163086V50.0342ZM8.41736 12.7921H0.163086V35.3642H8.41736C13.19 35.3642 16.476 34.1515 18.5103 31.9999C20.388 30.0048 21.4834 27.1882 21.4834 24.0586C21.4834 20.929 20.388 18.1124 18.5103 16.1173C16.476 13.9657 13.19 12.7921 8.41736 12.7921ZM189.425 49.2909L178.628 20.2249L167.439 49.2909H189.425ZM117.17 28.8312C118.735 27.1491 119.713 24.7628 119.713 22.1809C119.713 19.599 118.774 17.2127 117.17 15.5305C115.488 13.731 112.828 12.753 109.464 12.753H101.21V31.5696H109.464C112.828 31.5696 115.488 30.5916 117.17 28.7921V28.8312ZM40.4956 22.7677C40.4956 35.4816 33.6105 44.5183 21.7181 47.8043L43.1558 80.0782H49.9626V0.0390625H26.0995C34.3929 4.02928 40.5347 11.8532 40.5347 22.7677H40.4956ZM127.498 0.0390625C134.227 3.63808 138.686 10.132 138.686 18.6992C138.686 27.2664 134.618 33.8777 129.024 36.6161C136.378 39.2762 142.833 45.9266 143.85 57.0366L167.948 0.0390625H127.498ZM68.9357 80.0391H82.1973V0.0390625H68.9357V80.0391ZM195.019 64.2738H161.689L155.625 80.0391H200.848L195.019 64.2738ZM112.202 46.1613H101.21V67.3251H112.202C116.466 67.3251 119.244 66.308 121.122 64.352C122.96 62.4351 124.016 59.6576 124.016 56.7237C124.016 53.7897 122.96 51.0122 121.122 49.0953C119.283 47.1784 116.505 46.1222 112.202 46.1222V46.1613Z"></path>
</svg>